#!OML:ASF Y:\EmotionMaleHayes\Project 1\Capture day 1\Session 1\Male1.ASF
:FULLY-SPECIFIED
:DEGREES
690
root 9.40409 16.959 2.14889 -365.654 25.6522 -366.613
lowerback 7.07504 2.49866 4.61058
upperback 8.48941 3.53509 1.68752
thorax 5.06483 2.01475 -0.894265
lowerneck -17.671 0.0995579 4.03313
upperneck 27.7027 -3.49506 8.43628
head 12.2561 0.0607527 1.97634
rclavicle -1.2424e-016 1.43684e-014
rhumerus -13.4994 12.6491 -85.0438
rradius 37.7711
rwrist -4.04551
rhand -13.5191 -32.2702
rfingers 7.12502
rthumb 12.5928 -61.8707
lclavicle -1.2424e-016 1.43684e-014
lhumerus -25.9006 -16.3302 91.3439
lradius 26.8955
lwrist -6.36888
lhand -14.7283 -26.7919
lfingers 7.12502
lthumb 11.4268 2.87672
rfemur 5.6633 -4.45022 27.9104
rtibia 12.234
rfoot -19.3731 -2.07475
rtoes 3.00226
lfemur -21.2401 8.95862 -9.92407
ltibia 45.8151
lfoot -14.4201 8.07576
ltoes -3.19682
691
root 9.46053 16.9541 2.25248 -365.8 25.7103 -367.077
lowerback 7.04346 2.52079 5.09539
upperback 8.39073 3.58065 1.71041
thorax 5.01445 2.06064 -1.14075
lowerneck -17.7819 0.126218 3.85785
upperneck 27.9185 -3.32775 8.10161
head 12.3481 0.0839293 1.91122
rclavicle -6.809e-014 2.01269e-015
rhumerus -13.627 13.3567 -84.9861
rradius 38.3657
rwrist -4.55803
rhand -13.1652 -32.5953
rfingers 7.12502
rthumb 12.9339 -62.1745
lclavicle -6.809e-014 2.01269e-015
lhumerus -26.0657 -16.3692 91.5088
lradius 27.3747
lwrist -5.50096
lhand -14.6142 -27.2341
lfingers 7.12502
lthumb 11.5368 2.42835
rfemur 6.23946 -4.89904 28.2432
rtibia 11.9142
rfoot -19.3908 -1.74332
rtoes 2.40892
lfemur -21.766 9.08572 -9.80234
ltibia 43.9251
lfoot -14.1677 8.31324
ltoes -5.25064
692
root 9.51599 16.9471 2.35605 -365.797 25.6639 -367.322
lowerback 6.97339 2.62592 5.40967
upperback 8.28218 3.73051 1.65168
thorax 4.97572 2.15109 -1.3776
lowerneck -17.8133 0.112106 3.72625
upperneck 28.1052 -3.21257 7.74146
head 12.4135 0.0818902 1.81908
rclavicle -4.22914e-014 -1.06847e-014
rhumerus -13.7282 14.017 -84.9884
rradius 38.893
rwrist -5.30203
rhand -13.1433 -32.88
rfingers 7.12502
rthumb 12.955 -62.4578
lclavicle -4.22914e-014 -1.06847e-014
lhumerus -26.1591 -15.9347 91.5159
lradius 27.8003
lwrist -5.41731
lhand -15.9438 -27.2362
lfingers 7.12502
lthumb 10.2544 2.49383
rfemur 6.79208 -5.30764 28.32
rtibia 11.547
rfoot -19.586 -1.27751
rtoes 3.11363
lfemur -22.2247 9.35791 -9.90434
ltibia 41.9291
lfoot -13.9912 8.57487
ltoes -6.89195
693
root 9.56906 16.9382 2.46056 -365.668 25.6304 -367.403
lowerback 6.87623 2.73915 5.56605
upperback 8.16523 3.8867 1.48928
thorax 4.94044 2.23884 -1.63359
lowerneck -17.73 0.105559 3.82302
upperneck 28.1653 -3.11536 7.3066
head 12.4027 0.0785804 1.65206
rclavicle 8.64713e-015 3.67752e-015
rhumerus -13.7646 14.3652 -85.114
rradius 39.2858
rwrist -5.56785
rhand -13.2095 -32.8917
rfingers 7.12502
rthumb 12.8912 -62.4736
lclavicle 8.64713e-015 3.67752e-015
lhumerus -26.265 -15.7954 91.4092
lradius 28.3007
lwrist -5.22308
lhand -13.9753 -27.8241
lfingers 7.12502
lthumb 12.153 1.80293
rfemur 7.27874 -5.58727 28.2565
rtibia 11.1648
rfoot -19.8681 -1.03923
rtoes 2.6663
lfemur -22.7415 9.73937 -10.1876
ltibia 39.8741
lfoot -13.7295 8.86295
ltoes -7.56194
694
root 9.62834 16.9267 2.57245 -365.589 25.4961 -367.426
lowerback 6.75873 2.86299 5.57633
upperback 8.11424 4.048 1.36682
thorax 4.97398 2.32282 -1.76315
lowerneck -17.5884 0.16804 3.96759
upperneck 28.1222 -2.91499 6.84706
head 12.3357 0.116939 1.48079
rclavicle -5.95857e-014 3.50855e-014
rhumerus -13.7693 14.8867 -85.2116
rradius 39.6687
rwrist -5.94209
rhand -13.3692 -32.6774
rfingers 7.12502
rthumb 12.7373 -62.2689
lclavicle -5.95857e-014 3.50855e-014
lhumerus -26.2959 -15.5957 91.3578
lradius 28.6445
lwrist -5.12503
lhand -16.9338 -27.2978
lfingers 7.12502
lthumb 9.29925 2.47707
rfemur 7.9267 -5.75368 28.1177
rtibia 10.7674
rfoot -20.111 -0.686692
rtoes 3.32017
lfemur -23.0074 10.1041 -10.4637
ltibia 37.5886
lfoot -13.532 8.88061
ltoes -5.04098
695
root 9.68852 16.9124 2.68665 -365.559 25.3777 -367.551
lowerback 6.55243 2.96507 5.73732
upperback 8.11855 4.17748 1.25944
thorax 5.12727 2.40241 -1.95055
lowerneck -17.4945 0.251972 3.85323
upperneck 28.0691 -2.68091 6.63268
head 12.2828 0.175519 1.45272
rclavicle -5.35725e-014 1.39149e-015
rhumerus -13.7604 15.6528 -85.2415
rradius 40.1819
rwrist -6.59545
rhand -13.4226 -32.8899
rfingers 7.12502
rthumb 12.6858 -62.4847
lclavicle -5.35725e-014 1.39149e-015
lhumerus -26.1833 -15.2534 91.283
lradius 28.8056
lwrist -5.2592
lhand -16.6366 -28.0085
lfingers 7.12502
lthumb 9.586 1.75341
rfemur 8.53394 -5.78838 28.1541
rtibia 10.4777
rfoot -20.406 -0.449846
rtoes 4.12768
lfemur -23.1825 10.4021 -10.6744
ltibia 35.2056
lfoot -13.1115 9.03849
ltoes -3.33252
696
root 9.74223 16.8951 2.79684 -365.519 25.396 -367.826
lowerback 6.22858 2.95967 6.127
upperback 8.14867 4.16157 1.11797
thorax 5.38694 2.42656 -2.28897
lowerneck -17.4647 0.369513 3.62728
upperneck 28.0627 -2.40102 6.51041
head 12.2638 0.257368 1.48728
rclavicle 9.79014e-015 1.19271e-014
rhumerus -13.595 16.1895 -85.3337
rradius 40.5759
rwrist -6.79394
rhand -13.1472 -32.9695
rfingers 7.12502
rthumb 12.9513 -62.5476
lclavicle 9.79014e-015 1.19271e-014
lhumerus -25.9841 -14.7628 91.0341
lradius 28.9822
lwrist -5.61881
lhand -16.9871 -28.3771
lfingers 7.12502
lthumb 9.24784 1.40014
rfemur 8.96616 -5.94623 28.3226
rtibia 10.3103
rfoot -20.7296 -0.0960143
rtoes 4.28775
lfemur -23.5616 10.8151 -10.819
ltibia 33.0439
lfoot -12.4499 9.3133
ltoes -3.41934
697
root 9.79164 16.8797 2.90435 -365.577 25.3604 -368.341
lowerback 6.12528 2.99045 6.32097
upperback 8.04638 4.19541 1.31438
thorax 5.33956 2.4431 -2.18957
lowerneck -17.5327 0.439376 3.35499
upperneck 28.303 -2.09809 6.06103
head 12.355 0.311607 1.41533
rclavicle -7.62836e-014 4.27387e-014
rhumerus -13.6544 16.6745 -85.1617
rradius 40.895
rwrist -6.96863
rhand -13.0616 -32.6811
rfingers 7.12502
rthumb 13.0338 -62.2539
lclavicle -7.62836e-014 4.27387e-014
lhumerus -26.0178 -13.7907 91.1767
lradius 29.0709
lwrist -6.7874
lhand -17.9004 -28.5218
lfingers 7.12502
lthumb 8.36645 1.29252
rfemur 9.35648 -6.09884 28.7466
rtibia 10.126
rfoot -21.0057 0.134557
rtoes 2.75911
lfemur -23.9524 11.2736 -10.6454
ltibia 30.9468
lfoot -11.8415 9.48664
ltoes -2.89416
698
root 9.84545 16.8633 3.01454 -365.629 25.2489 -368.853
lowerback 6.02656 3.06721 6.63657
upperback 7.92786 4.29827 1.38508
thorax 5.30058 2.50455 -2.28812
lowerneck -17.6466 0.501739 3.27128
upperneck 28.5054 -1.88493 5.68617
head 12.4466 0.355205 1.32513
rclavicle -7.10655e-014 4.37326e-014
rhumerus -13.751 17.0851 -85.2163
rradius 41.1926
rwrist -7.379
rhand -13.3663 -32.7321
rfingers 7.12502
rthumb 12.74 -62.3234
lclavicle -7.10655e-014 4.37326e-014
lhumerus -26.1576 -13.1839 91.1977
lradius 29.124
lwrist -8.34442
lhand -19.3032 -28.8908
lfingers 7.12502
lthumb 7.01246 0.973028
rfemur 9.73458 -6.32024 29.1608
rtibia 9.90497
rfoot -21.2579 0.183522
rtoes -0.156042
lfemur -24.2124 11.6287 -10.445
ltibia 28.7234
lfoot -11.3266 9.5386
ltoes -1.59334
699
root 9.90809 16.8399 3.13212 -365.559 25.1864 -369.138
lowerback 5.76368 3.1507 6.86715
upperback 7.84638 4.39799 1.29912
thorax 5.40003 2.56898 -2.48944
lowerneck -17.5393 0.588371 3.31304
upperneck 28.475 -1.67322 5.39514
head 12.4019 0.411931 1.23827
rclavicle -1.18277e-014 -4.01545e-014
rhumerus -13.8061 17.2361 -85.3858
rradius 41.3729
rwrist -7.30742
rhand -12.9976 -32.392
rfingers 7.12502
rthumb 13.0955 -61.9609
lclavicle -1.18277e-014 -4.01545e-014
lhumerus -26.1607 -12.8758 90.9569
lradius 29.2841
lwrist -8.3525
lhand -16.7778 -29.3606
lfingers 7.12502
lthumb 9.44975 0.407516
rfemur 10.2045 -6.7991 29.1893
rtibia 9.61064
rfoot -21.4923 0.622143
rtoes -1.44442
lfemur -24.3636 11.8608 -10.5633
ltibia 26.3898
lfoot -10.8632 9.71619
ltoes -1.2982
700
root 9.96715 16.816 3.24984 -365.538 25.1594 -369.524
lowerback 5.54626 3.2241 7.14643
upperback 7.75057 4.48718 1.25898
thorax 5.45949 2.62801 -2.673
lowerneck -17.3752 0.666438 3.30701
upperneck 28.4112 -1.46688 5.14751
head 12.3337 0.465465 1.17423
rclavicle -1.00088e-013 3.1408e-014
rhumerus -13.8754 17.1549 -85.4901
rradius 41.5205
rwrist -6.73075
rhand -12.0278 -31.6284
rfingers 7.12502
rthumb 14.0302 -61.1349
lclavicle -1.00088e-013 3.1408e-014
lhumerus -26.1437 -12.5042 90.7975
lradius 29.1669
lwrist -9.04985
lhand -18.0479 -29.6701
lfingers 7.12502
lthumb 8.22408 0.149843
rfemur 10.674 -6.91453 29.4805
rtibia 9.34179
rfoot -21.8509 0.846111
rtoes -1.46937
lfemur -24.5033 11.9834 -10.5669
ltibia 24.1521
lfoot -10.532 10.0227
ltoes -1.87793
701
root 10.0178 16.7933 3.3623 -365.572 25.1105 -370.099
lowerback 5.47134 3.30489 7.47432
upperback 7.58792 4.59785 1.31565
thorax 5.36626 2.69087 -2.79507
lowerneck -17.311 0.683178 3.15627
upperneck 28.4751 -1.34859 5.0064
head 12.3406 0.484192 1.16538
rclavicle 6.55989e-015 -2.38542e-014
rhumerus -13.9497 17.3863 -85.5688
rradius 41.7008
rwrist -6.71283
rhand -12.0118 -31.5407
rfingers 7.12502
rthumb 14.0457 -61.0461
lclavicle 6.55989e-015 -2.38542e-014
lhumerus -26.0876 -11.6131 90.6176
lradius 28.9472
lwrist -10.2203
lhand -19.5636 -29.7141
lfingers 7.12502
lthumb 6.76113 0.15794
rfemur 10.9973 -6.95663 30.0433
rtibia 9.21033
rfoot -22.2786 1.00103
rtoes -1.67857
lfemur -24.8095 12.2237 -10.3146
ltibia 22.2136
lfoot -10.1675 10.0948
ltoes -2.621
702
root 10.0722 16.7662 3.47554 -365.477 25.1727 -370.661
lowerback 5.21548 3.36474 7.84519
upperback 7.42275 4.6666 1.30532
thorax 5.37948 2.73936 -2.9977
lowerneck -16.9967 0.690156 3.00863
upperneck 28.2278 -1.24166 4.94506
head 12.173 0.496427 1.17591
rclavicle 5.09883e-014 1.47101e-014
rhumerus -13.9865 17.6496 -85.7801
rradius 41.8231
rwrist -7.08986
rhand -12.3028 -31.5032
rfingers 7.12502
rthumb 13.7652 -61.0278
lclavicle 5.09883e-014 1.47101e-014
lhumerus -26.0812 -11.4057 90.4615
lradius 28.8662
lwrist -10.7528
lhand -18.4363 -29.7256
lfingers 7.12502
lthumb 7.84924 0.108688
rfemur 11.1856 -7.31084 30.4948
rtibia 9.12332
rfoot -22.6631 1.29538
rtoes -2.43002
lfemur -25.3171 12.3291 -10.1292
ltibia 20.3778
lfoot -9.61749 10.2138
ltoes -3.7335
703
root 10.1481 16.7397 3.59786 -365.437 25.1687 -371.219
lowerback 4.79927 3.42905 8.39325
upperback 7.3331 4.72427 1.27684
thorax 5.5853 2.8004 -3.29963
lowerneck -17.2258 0.758377 3.2979
upperneck 28.4292 -1.06819 4.33325
head 12.2903 0.531973 0.926915
rclavicle 1.21259e-014 1.03368e-014
rhumerus -14.0085 17.7391 -85.9684
rradius 41.8826
rwrist -7.10307
rhand -11.9705 -31.2899
rfingers 7.12502
rthumb 14.0854 -60.7925
lclavicle 1.21259e-014 1.03368e-014
lhumerus -26.1188 -11.2332 90.3733
lradius 28.6514
lwrist -11.6466
lhand -18.6176 -29.8066
lfingers 7.12502
lthumb 7.67428 0.0341138
rfemur 11.5045 -7.65626 30.7956
rtibia 9.08933
rfoot -23.0982 1.91455
rtoes -2.02052
lfemur -25.5075 12.0315 -9.87542
ltibia 18.4476
lfoot -9.72741 10.6624
ltoes -4.57666
704
root 10.2138 16.7093 3.71819 -365.398 25.1595 -371.811
lowerback 4.4822 3.45626 8.79728
upperback 7.20674 4.7356 1.3234
thorax 5.66865 2.82333 -3.45458
lowerneck -17.3677 0.828875 3.33037
upperneck 28.5923 -0.877649 3.96431
head 12.3781 0.576453 0.814488
rclavicle -1.51076e-014 -3.06128e-014
rhumerus -14.0614 18.1387 -86.0825
rradius 41.9285
rwrist -7.10376
rhand -12.2107 -31.6226
rfingers 7.12502
rthumb 13.854 -61.1412
lclavicle -1.51076e-014 -3.06128e-014
lhumerus -26.1008 -10.5327 90.1794
lradius 28.2995
lwrist -12.7172
lhand -19.139 -29.9843
lfingers 7.12502
lthumb 7.17094 -0.12575
rfemur 11.7713 -8.03435 31.1481
rtibia 9.12346
rfoot -23.5015 2.80438
rtoes -0.480814
lfemur -25.9864 12.4519 -9.62053
ltibia 17.2275
lfoot -10.4137 10.1094
ltoes -0.772564
